<svg xmlns="http://www.w3.org/2000/svg" width="576" height="202" fill="none" viewBox="0 0 576 202"><rect width="576" height="202" fill="#090909" rx="10"/><path fill="#fff" d="M254.531 157.156C254.531 158.198 254.271 159.031 253.75 159.656C253.281 160.281 252.448 160.594 251.25 160.594C250.625 160.594 249.974 160.516 249.297 160.359C248.62 160.255 247.969 160.073 247.344 159.812C246.042 159.448 245 159.109 244.219 158.797C243.49 158.484 242.917 158.068 242.5 157.547C242.135 157.078 241.901 156.453 241.797 155.672C241.693 154.891 241.615 153.823 241.562 152.469C241.146 141.792 240.677 131.219 240.156 120.75C239.688 110.229 238.906 99.6562 237.812 89.0312C237.083 92.625 236.38 96.2188 235.703 99.8125C235.026 103.406 234.323 107.052 233.594 110.75C232.865 114.604 232.161 118.536 231.484 122.547C230.859 126.557 229.844 130.438 228.438 134.188C227.865 135.698 227.161 136.896 226.328 137.781C225.495 138.615 224.219 139.031 222.5 139.031C221.25 139.031 220.234 138.823 219.453 138.406C218.672 137.938 217.917 137.26 217.188 136.375C216.51 135.646 215.781 134.24 215 132.156C214.219 130.073 213.385 127.651 212.5 124.891C211.667 122.078 210.833 119.083 210 115.906C209.167 112.729 208.385 109.682 207.656 106.766C206.927 103.797 206.276 101.089 205.703 98.6406C205.13 96.1927 204.688 94.3438 204.375 93.0938V103.719C204.375 110.646 204.505 117.547 204.766 124.422C205.026 131.297 205.469 138.146 206.094 144.969C206.25 146.479 206.458 147.99 206.719 149.5C207.031 151.01 207.188 152.521 207.188 154.031C207.188 155.385 206.719 156.271 205.781 156.688C204.896 157.104 203.906 157.312 202.812 157.312C199.844 157.312 197.552 156.688 195.938 155.438C194.375 154.135 193.594 151.948 193.594 148.875C193.594 142.573 193.438 136.323 193.125 130.125C192.812 123.927 192.656 117.677 192.656 111.375C192.656 110.49 192.656 108.953 192.656 106.766C192.708 104.578 192.76 102 192.812 99.0312C192.865 96.0104 192.917 92.7552 192.969 89.2656C193.073 85.724 193.177 82.1562 193.281 78.5625C193.385 74.9688 193.49 71.4792 193.594 68.0938C193.698 64.6562 193.802 61.5833 193.906 58.875C194.01 56.1667 194.115 53.9271 194.219 52.1562C194.375 50.3333 194.531 49.2396 194.688 48.875C194.948 48.1458 195.234 47.6771 195.547 47.4688C195.911 47.2604 196.458 47.1562 197.188 47.1562C199.167 47.1562 200.807 47.599 202.109 48.4844C203.464 49.3177 204.375 50.75 204.844 52.7812C205.573 53.875 206.406 55.8802 207.344 58.7969C208.281 61.6615 209.271 65.0208 210.312 68.875C211.354 72.7292 212.396 76.8958 213.438 81.375C214.531 85.8021 215.547 90.0729 216.484 94.1875C217.474 98.3021 218.359 102.078 219.141 105.516C219.974 108.953 220.625 111.583 221.094 113.406C222.604 104.448 224.141 95.5417 225.703 86.6875C227.266 77.8333 228.75 68.9271 230.156 59.9688C230.417 58.4583 230.677 56.974 230.938 55.5156C231.25 54.0573 231.406 52.5729 231.406 51.0625C231.406 50.125 231.276 49.2656 231.016 48.4844C230.755 47.651 230.625 46.7917 230.625 45.9062C230.625 44.8125 230.964 44.1615 231.641 43.9531C232.37 43.6927 233.177 43.5625 234.062 43.5625C234.896 43.5625 235.885 43.6927 237.031 43.9531C238.177 44.2135 239.271 44.6042 240.312 45.125C241.406 45.6458 242.318 46.2969 243.047 47.0781C243.828 47.8594 244.219 48.7708 244.219 49.8125C244.219 51.6354 244.062 53.5625 243.75 55.5938C245.625 64.3958 247.188 73.224 248.438 82.0781C249.688 90.8802 250.625 99.7604 251.25 108.719C251.875 116.427 252.37 124.083 252.734 131.688C253.151 139.292 253.646 146.896 254.219 154.5C254.323 154.969 254.401 155.411 254.453 155.828C254.505 156.245 254.531 156.688 254.531 157.156ZM294.688 105.438C294.688 105.958 294.635 106.505 294.531 107.078C294.427 107.651 294.323 108.172 294.219 108.641C294.115 109.214 294.01 109.76 293.906 110.281C293.802 110.75 293.75 111.219 293.75 111.688C293.75 116.531 293.828 121.401 293.984 126.297C294.193 131.141 294.714 136.01 295.547 140.906C295.807 142.781 296.12 144.604 296.484 146.375C296.849 148.146 297.266 149.943 297.734 151.766L297.891 152.234V152.078C298.047 152.443 298.177 152.833 298.281 153.25C298.438 153.615 298.516 154.005 298.516 154.422C298.516 154.995 298.359 155.464 298.047 155.828C297.786 156.193 297.448 156.479 297.031 156.688C296.615 156.896 296.146 157.026 295.625 157.078C295.156 157.13 294.714 157.156 294.297 157.156C292.578 157.156 291.198 156.974 290.156 156.609C289.167 156.193 288.359 155.646 287.734 154.969C287.109 154.24 286.641 153.38 286.328 152.391C286.068 151.401 285.833 150.307 285.625 149.109L285.391 147.703C285.182 146.974 285.052 146.193 285 145.359C284.948 144.943 284.896 144.76 284.844 144.812C284.844 144.812 284.818 144.604 284.766 144.188C284.036 145.49 283.177 146.896 282.188 148.406C281.25 149.865 280.156 151.245 278.906 152.547C277.708 153.797 276.406 154.865 275 155.75C273.594 156.583 272.083 157 270.469 157C268.229 157 266.484 156.323 265.234 154.969C264.036 153.615 263.151 151.974 262.578 150.047C262.005 148.068 261.667 146.036 261.562 143.953C261.458 141.818 261.406 139.969 261.406 138.406C261.406 132.469 261.589 126.583 261.953 120.75C262.37 114.917 262.812 109.057 263.281 103.172C263.281 103.016 263.281 102.807 263.281 102.547C263.333 102.286 263.359 102.078 263.359 101.922C263.411 101.193 263.464 100.516 263.516 99.8906C263.568 99.2656 263.698 98.6667 263.906 98.0938V98.1719C264.115 97.3385 264.401 96.7396 264.766 96.375C265.182 96.0104 265.807 95.8281 266.641 95.8281C267.422 95.8281 268.203 95.9844 268.984 96.2969C269.766 96.5573 270.469 96.9479 271.094 97.4688C271.719 97.9375 272.214 98.5104 272.578 99.1875C272.995 99.8646 273.203 100.62 273.203 101.453C273.203 101.87 273.203 102.365 273.203 102.938C273.203 103.51 273.177 104.005 273.125 104.422C273.125 104.786 273.099 105.255 273.047 105.828C273.047 106.349 273.047 106.792 273.047 107.156C272.63 112.156 272.318 117.13 272.109 122.078C271.901 126.974 271.797 131.948 271.797 137C271.797 138.406 271.797 139.812 271.797 141.219C271.849 142.625 272.005 144.031 272.266 145.438C273.984 143.25 275.469 140.464 276.719 137.078C277.969 133.641 279.01 130.021 279.844 126.219C280.729 122.365 281.432 118.562 281.953 114.812C282.526 111.01 282.943 107.651 283.203 104.734C283.203 104.578 283.203 104.396 283.203 104.188C283.255 103.979 283.281 103.797 283.281 103.641C283.333 103.068 283.385 102.521 283.438 102C283.49 101.479 283.672 100.984 283.984 100.516C283.984 100.047 284.01 99.5521 284.062 99.0312C284.115 98.5104 284.245 98.0417 284.453 97.625C284.661 97.1562 284.948 96.7917 285.312 96.5312C285.729 96.2708 286.302 96.1406 287.031 96.1406C289.115 96.1406 290.755 96.7917 291.953 98.0938C293.151 99.3438 293.802 100.958 293.906 102.938C294.167 103.354 294.349 103.771 294.453 104.188C294.609 104.552 294.688 104.969 294.688 105.438ZM330.078 99.7344C330.078 100.359 329.844 100.88 329.375 101.297C328.958 101.714 328.438 102.078 327.812 102.391C327.188 102.651 326.536 102.833 325.859 102.938C325.234 103.042 324.714 103.094 324.297 103.094C323.672 103.094 323.073 103.042 322.5 102.938C321.927 102.781 321.354 102.625 320.781 102.469C320.208 102.312 319.661 102.182 319.141 102.078C318.62 101.922 318.073 101.844 317.5 101.844C316.719 101.844 315.938 101.974 315.156 102.234C314.375 102.495 313.672 102.859 313.047 103.328C312.422 103.797 311.901 104.37 311.484 105.047C311.12 105.724 310.938 106.479 310.938 107.312C310.938 108.562 311.198 109.812 311.719 111.062C312.24 112.26 312.917 113.484 313.75 114.734C314.635 115.984 315.625 117.26 316.719 118.562C317.865 119.812 319.062 121.089 320.312 122.391C321.823 124.057 323.333 125.75 324.844 127.469C326.406 129.188 327.786 130.984 328.984 132.859C330.234 134.734 331.25 136.714 332.031 138.797C332.812 140.88 333.203 143.068 333.203 145.359C333.203 147.339 332.865 149.109 332.188 150.672C331.562 152.234 330.651 153.562 329.453 154.656C328.307 155.75 326.901 156.583 325.234 157.156C323.62 157.781 321.849 158.094 319.922 158.094C319.401 158.094 318.594 157.99 317.5 157.781C316.458 157.573 315.26 157.286 313.906 156.922C312.552 156.505 311.146 156.062 309.688 155.594C308.281 155.125 306.979 154.63 305.781 154.109C304.635 153.536 303.672 152.99 302.891 152.469C302.161 151.896 301.797 151.375 301.797 150.906C301.797 150.281 302.083 149.656 302.656 149.031C303.229 148.354 303.906 147.755 304.688 147.234C305.469 146.661 306.276 146.193 307.109 145.828C307.995 145.464 308.724 145.281 309.297 145.281C310.078 145.281 310.885 145.464 311.719 145.828C312.604 146.193 313.49 146.609 314.375 147.078C315.365 147.599 316.354 148.068 317.344 148.484C318.385 148.901 319.453 149.109 320.547 149.109C321.38 149.109 321.849 148.823 321.953 148.25C322.109 147.677 322.188 147.026 322.188 146.297C322.188 144.474 321.875 142.755 321.25 141.141C320.625 139.474 319.818 137.859 318.828 136.297C317.839 134.734 316.693 133.224 315.391 131.766C314.089 130.255 312.786 128.771 311.484 127.312C310.13 125.854 308.802 124.396 307.5 122.938C306.25 121.479 305.13 119.995 304.141 118.484C303.151 116.922 302.344 115.333 301.719 113.719C301.146 112.104 300.859 110.385 300.859 108.562C300.859 106.323 301.354 104.318 302.344 102.547C303.333 100.724 304.609 99.1615 306.172 97.8594C307.786 96.5573 309.583 95.5677 311.562 94.8906C313.594 94.1615 315.625 93.7969 317.656 93.7969C318.333 93.7969 319.375 93.9531 320.781 94.2656C322.188 94.526 323.568 94.9167 324.922 95.4375C326.276 95.9583 327.474 96.5833 328.516 97.3125C329.557 98.0417 330.078 98.849 330.078 99.7344ZM347.031 91.2969C347.031 92.1823 346.823 92.8333 346.406 93.25C346.042 93.6146 345.339 93.7969 344.297 93.7969C343.828 93.7969 343.099 93.7448 342.109 93.6406C341.12 93.4844 340.104 93.276 339.062 93.0156C338.073 92.7552 337.188 92.3906 336.406 91.9219C335.677 91.4531 335.312 90.8802 335.312 90.2031C335.312 89.9948 335.391 89.4219 335.547 88.4844C335.703 87.4948 335.885 86.4531 336.094 85.3594C336.354 84.2656 336.562 83.276 336.719 82.3906C336.927 81.5052 337.083 81.0104 337.188 80.9062V80.9844C337.448 80.5677 337.76 80.3073 338.125 80.2031C338.49 80.099 338.854 80.0469 339.219 80.0469C339.688 80.0469 340.286 80.125 341.016 80.2812C341.797 80.3854 342.552 80.5677 343.281 80.8281C344.062 81.0365 344.766 81.3229 345.391 81.6875C346.016 82.0521 346.406 82.4427 346.562 82.8594C346.719 83.276 346.797 83.849 346.797 84.5781C346.849 85.2552 346.849 85.8802 346.797 86.4531C346.797 86.6615 346.771 86.9219 346.719 87.2344C346.719 87.4948 346.719 87.7031 346.719 87.8594C346.719 88.1198 346.719 88.3802 346.719 88.6406C346.771 88.901 346.823 89.1615 346.875 89.4219C346.927 89.6823 346.953 89.9688 346.953 90.2812C347.005 90.5938 347.031 90.9323 347.031 91.2969ZM349.922 153.562C349.922 154.76 349.635 155.62 349.062 156.141C348.542 156.609 347.682 156.844 346.484 156.844C345.859 156.844 345.156 156.766 344.375 156.609C343.646 156.453 342.917 156.245 342.188 155.984C341.458 155.672 340.781 155.307 340.156 154.891C339.531 154.474 339.062 154.005 338.75 153.484C338.542 153.172 338.359 152.208 338.203 150.594C338.047 148.979 337.917 146.974 337.812 144.578C337.76 142.182 337.682 139.5 337.578 136.531C337.526 133.562 337.474 130.568 337.422 127.547C337.422 124.526 337.422 121.583 337.422 118.719C337.422 115.854 337.422 113.354 337.422 111.219V105.203C337.422 104.682 337.422 104.161 337.422 103.641C337.474 103.12 337.578 102.677 337.734 102.312C337.943 101.896 338.229 101.557 338.594 101.297C339.01 101.036 339.583 100.906 340.312 100.906C342.604 100.906 344.271 101.557 345.312 102.859C346.406 104.109 347.083 105.802 347.344 107.938C347.604 111.115 347.786 114.292 347.891 117.469C348.047 120.594 348.177 123.771 348.281 127C348.385 129.917 348.464 132.807 348.516 135.672C348.62 138.484 348.802 141.297 349.062 144.109C349.115 144.682 349.167 145.229 349.219 145.75C349.271 146.271 349.349 146.792 349.453 147.312C349.557 148.354 349.661 149.396 349.766 150.438C349.87 151.427 349.922 152.469 349.922 153.562ZM395.312 158.172C395.312 158.745 395 159.266 394.375 159.734C393.75 160.203 393.021 160.594 392.188 160.906C391.406 161.219 390.599 161.453 389.766 161.609C388.932 161.818 388.281 161.922 387.812 161.922C386.927 161.922 386.12 161.74 385.391 161.375C384.661 161.062 383.984 160.646 383.359 160.125C382.734 159.604 382.135 159.031 381.562 158.406C381.042 157.781 380.547 157.156 380.078 156.531C378.255 154.292 376.38 151.792 374.453 149.031C372.526 146.271 370.807 143.641 369.297 141.141C369.297 141.349 369.323 141.609 369.375 141.922C369.427 142.234 369.453 142.495 369.453 142.703C369.557 143.797 369.635 144.891 369.688 145.984C369.792 147.026 369.922 148.094 370.078 149.188C370.13 149.812 370.182 150.438 370.234 151.062C370.339 151.635 370.443 152.26 370.547 152.938C370.651 153.771 370.755 154.604 370.859 155.438C370.964 156.271 371.016 157.13 371.016 158.016C371.016 159.109 370.703 159.839 370.078 160.203C369.453 160.62 368.62 160.828 367.578 160.828C366.849 160.828 366.068 160.776 365.234 160.672C364.401 160.568 363.594 160.359 362.812 160.047C362.031 159.734 361.328 159.318 360.703 158.797C360.078 158.276 359.609 157.599 359.297 156.766C359.141 156.141 358.984 154.969 358.828 153.25C358.672 151.531 358.542 149.63 358.438 147.547C358.333 145.411 358.229 143.276 358.125 141.141C358.073 139.005 358.021 137.234 357.969 135.828C357.969 135.516 357.943 135.255 357.891 135.047C357.891 134.839 357.891 134.63 357.891 134.422C357.474 134.057 357.109 133.615 356.797 133.094C356.484 132.573 356.328 132.078 356.328 131.609C356.328 130.932 356.458 130.333 356.719 129.812C356.979 129.292 357.266 128.797 357.578 128.328C357.266 121.922 357.109 115.542 357.109 109.188C357.109 103.927 357.161 98.7188 357.266 93.5625C357.422 88.3542 357.552 83.1458 357.656 77.9375L357.891 67.4688C357.943 66.9479 357.969 66.2708 357.969 65.4375C357.969 64.6042 357.969 63.7188 357.969 62.7812C357.969 61.6354 357.969 60.4375 357.969 59.1875C357.969 57.9375 357.995 56.7656 358.047 55.6719C358.099 54.5781 358.151 53.5885 358.203 52.7031C358.255 51.8177 358.359 51.1667 358.516 50.75V50.8281C358.724 50.0469 359.01 49.474 359.375 49.1094C359.74 48.7448 360.365 48.5625 361.25 48.5625C363.438 48.5625 365.13 49.2135 366.328 50.5156C367.526 51.8177 368.125 53.5625 368.125 55.75C368.125 59.2396 368.099 62.7292 368.047 66.2188C368.047 69.6562 368.021 73.1198 367.969 76.6094C367.917 80.099 367.865 83.5885 367.812 87.0781C367.812 90.5156 367.812 93.9792 367.812 97.4688C367.812 98.7188 367.812 99.9948 367.812 101.297C367.865 102.547 367.891 103.823 367.891 105.125C367.943 106.167 367.969 107.234 367.969 108.328C367.969 109.422 367.969 110.568 367.969 111.766L376.406 98.3281V98.4062L377.109 97C377.266 96.7396 377.344 96.5573 377.344 96.4531C377.396 96.349 377.448 96.2188 377.5 96.0625C377.604 95.8542 377.786 95.5417 378.047 95.125C378.359 94.7083 378.88 94.0833 379.609 93.25C379.87 92.9896 380.182 92.7552 380.547 92.5469C380.911 92.3385 381.38 92.2344 381.953 92.2344C382.526 92.2344 383.099 92.4167 383.672 92.7812C384.297 93.0938 384.844 93.5104 385.312 94.0312C385.781 94.5521 386.172 95.125 386.484 95.75C386.797 96.375 386.953 96.9479 386.953 97.4688C386.953 97.8854 386.719 98.6146 386.25 99.6562C385.781 100.646 385.156 101.87 384.375 103.328C383.646 104.786 382.812 106.375 381.875 108.094C380.938 109.76 379.948 111.453 378.906 113.172C377.917 114.891 376.953 116.557 376.016 118.172C375.078 119.786 374.245 121.219 373.516 122.469L371.484 125.75C372.682 127.833 374.062 130.151 375.625 132.703C377.24 135.203 378.932 137.729 380.703 140.281C382.474 142.833 384.271 145.281 386.094 147.625C387.969 149.969 389.792 152.026 391.562 153.797L392.344 154.422C392.969 154.891 393.62 155.464 394.297 156.141C394.974 156.766 395.312 157.443 395.312 158.172Z"/></svg>